<svg width="48" height="48" viewBox="0 0 48 48" fill="none" xmlns="http://www.w3.org/2000/svg">
<path d="M20.5921 43.4504V40.5791C20.5921 38.6027 20.0261 36.6801 18.9554 35.0187C17.9944 33.5276 16.4022 32.6006 14.6472 32.494C15.172 31.7804 15.4832 30.9002 15.4832 29.9482V27.253C15.4832 27.2137 15.481 27.1741 15.4799 27.1346C15.4807 27.1192 15.4824 27.1038 15.4824 27.0879C15.447 24.8052 13.5612 22.9482 11.2782 22.9482H10.9948C8.67609 22.9482 6.78918 24.8346 6.78918 27.1538V27.2277C6.78918 27.2362 6.78836 27.2445 6.78836 27.253V29.9482C6.78836 30.8985 7.09845 31.7772 7.62195 32.4902C5.83392 32.5723 4.2063 33.5039 3.22989 35.0187C2.15955 36.6801 1.59375 38.6027 1.59375 40.5791V44.3173C1.59375 44.8048 1.98898 45.2 2.47623 45.2H20.4265C20.914 45.2 21.3093 44.8048 21.3093 44.3173C21.3093 43.886 21.0003 43.5279 20.5921 43.4504ZM10.9494 32.4833C9.61597 32.4083 8.55441 31.3001 8.55441 29.9482V29.0396C8.95102 29.1075 9.31027 29.1424 9.63162 29.1424C10.0367 29.1424 10.3836 29.0885 10.6761 28.9806C10.875 28.9072 11.0689 28.8328 11.2584 28.76C12.1986 28.398 12.9407 28.1127 13.5477 28.2555C13.6035 28.2687 13.66 28.278 13.7174 28.2838V29.9482C13.7174 31.3001 12.6556 32.4083 11.3221 32.4833H10.9494ZM11.1779 24.7135C12.3068 24.7135 13.2654 25.454 13.5949 26.4749C12.59 26.3559 11.6325 26.7243 10.6248 27.1121C10.4427 27.1821 10.2565 27.2535 10.0656 27.3241C9.85355 27.4021 9.35751 27.4101 8.55496 27.2428V27.2277C8.5687 25.8393 9.70221 24.7135 11.0936 24.7135H11.1779ZM3.35953 40.5791C3.35953 38.943 3.82755 37.3508 4.71414 35.9753C5.41068 34.8945 6.59418 34.2491 7.88013 34.2491H10.9225C10.9791 34.2513 11.0365 34.2535 11.0936 34.2535H11.1779C11.2356 34.2535 11.2925 34.2513 11.3496 34.2491H14.3052C15.5912 34.2491 16.7747 34.8945 17.4712 35.9753C18.3578 37.3508 18.8264 38.9425 18.8264 40.5789V43.4342H17.068V37.8339C17.068 37.3464 16.6728 36.9512 16.1852 36.9512H6.08661C5.59882 36.9512 5.20358 37.3464 5.20358 37.8339V43.4342H3.35953V40.5791ZM6.96936 43.4342V38.717H15.3022V43.4342H6.96936Z" fill="#222222"/>
<path d="M44.8411 35.0187C43.8798 33.5276 42.2876 32.6006 40.5325 32.494C41.0574 31.7804 41.3686 30.9002 41.3686 29.9482V27.253C41.3686 27.2137 41.3667 27.1741 41.3659 27.1346C41.3661 27.1192 41.3681 27.1038 41.3678 27.0879C41.3329 24.8052 39.4466 22.9482 37.1636 22.9482H36.8807C34.5615 22.9482 32.6749 24.8346 32.6749 27.1538V27.2277C32.6746 27.2362 32.6743 27.2445 32.6743 27.253V29.9482C32.6743 30.8985 32.9841 31.7772 33.5074 32.4902C31.7193 32.5723 30.0917 33.5039 29.1153 35.0187C28.045 36.6801 27.4792 38.6027 27.4792 40.5789V43.4342H27.4023C26.9148 43.4342 26.5195 43.8295 26.5195 44.3173C26.5195 44.8048 26.9148 45.2 27.4023 45.2H45.5948C46.0823 45.2 46.4775 44.8048 46.4775 44.3173V40.5789C46.4775 38.6027 45.9117 36.6801 44.8411 35.0187ZM36.8354 32.4833C35.5019 32.4083 34.4398 31.3001 34.4398 29.9482V29.0396C34.8364 29.1075 35.1957 29.1424 35.517 29.1424C35.9224 29.1424 36.2696 29.0885 36.5616 28.9806C36.7604 28.9072 36.9543 28.8328 37.1444 28.76C38.084 28.398 38.8267 28.1127 39.4331 28.2555C39.4891 28.2687 39.5454 28.278 39.6028 28.2838V29.9482C39.6028 31.3001 38.5413 32.4083 37.2078 32.4833H36.8354ZM37.0636 24.7135C38.1922 24.7135 39.151 25.454 39.4803 26.4749C38.4754 26.3559 37.5179 26.7243 36.5102 27.1121C36.3281 27.1821 36.1422 27.2535 35.951 27.3241C35.7395 27.4021 35.2429 27.4101 34.4406 27.2428V27.2277C34.4544 25.8393 35.5876 24.7135 36.9796 24.7135H37.0636ZM32.8548 43.4342V38.717H41.1879V43.4342H32.8548ZM44.7117 43.4342H42.9534V37.8339C42.9534 37.3464 42.5581 36.9512 42.0706 36.9512H31.972C31.4845 36.9512 31.0896 37.3464 31.0896 37.8339V43.4342H29.2447V40.5791C29.2447 38.943 29.7135 37.3508 30.5996 35.9753C31.2964 34.8945 32.4799 34.2491 33.7661 34.2491H36.8079C36.8648 34.2513 36.9219 34.2535 36.9796 34.2535H37.0636C37.121 34.2535 37.1779 34.2513 37.235 34.2491H40.1909C41.4765 34.2491 42.66 34.8945 43.3571 35.9753C44.2434 37.3508 44.7117 38.9425 44.7117 40.5789V43.4342Z" fill="#222222"/>
<path d="M37.7207 40.3701H36.3323C35.8447 40.3701 35.4492 40.7654 35.4492 41.2529C35.4492 41.7404 35.8447 42.1359 36.3323 42.1359H37.7207C38.2082 42.1359 38.6034 41.7404 38.6034 41.2529C38.6034 40.7654 38.2082 40.3701 37.7207 40.3701Z" fill="#222222"/>
<path d="M11.1369 39.6758C10.6491 39.6758 10.2539 40.071 10.2539 40.5585V41.947C10.2539 42.4345 10.6491 42.83 11.1369 42.83C11.6244 42.83 12.0197 42.4345 12.0197 41.947V40.5585C12.0197 40.071 11.6244 39.6758 11.1369 39.6758Z" fill="#222222"/>
<path d="M24.4937 43.6224L24.4714 43.6054C24.0828 43.3107 23.5293 43.3865 23.2343 43.7749C22.9396 44.1632 23.0154 44.7169 23.4038 45.0119L23.4263 45.0289C23.5859 45.1503 23.7735 45.2085 23.9594 45.2085C24.2259 45.2085 24.4895 45.0885 24.6634 44.8595C24.9584 44.4711 24.8823 43.9174 24.4937 43.6224Z" fill="#222222"/>
<path d="M2.36029 18.1568H6.81827L8.29785 20.0245C8.63266 20.4472 9.146 20.6935 9.68268 20.6935C9.7074 20.6935 9.73239 20.693 9.75711 20.6919C10.3204 20.6683 10.8426 20.373 11.154 19.9031L12.3101 18.1568H18.5313V20.4304C18.5313 20.9179 18.9268 21.3134 19.4144 21.3134H28.9472L31.3636 23.1152C31.6721 23.3451 32.0412 23.4657 32.4175 23.4657C32.5562 23.4657 32.6957 23.4492 32.8336 23.416C33.3459 23.2924 33.7721 22.9504 34.0042 22.4774L34.5755 21.3134H39.0651C39.5531 21.3134 39.9481 20.9182 39.9481 20.4304V5.30994C39.9481 4.82242 39.5531 4.42691 39.0651 4.42691H23.548V3.60541C23.548 3.11789 23.1527 2.72266 22.6652 2.72266H15.7491C15.2615 2.72266 14.8663 3.11789 14.8663 3.60541C14.8663 4.09293 15.2615 4.48816 15.7491 4.48816H21.7822V16.391H11.836C11.5399 16.391 11.2633 16.5399 11.0999 16.7865L9.68185 18.928L7.93723 16.7258C7.76968 16.5143 7.5148 16.391 7.24536 16.391H3.24332V4.48816H8.64227C9.12979 4.48816 9.5253 4.09293 9.5253 3.60541C9.5253 3.11789 9.12979 2.72266 8.64227 2.72266H2.36029C1.87277 2.72266 1.47754 3.11789 1.47754 3.60541V17.274C1.47754 17.7616 1.87277 18.1568 2.36029 18.1568ZM22.6652 18.1568C23.1527 18.1568 23.548 17.7616 23.548 17.274V6.19269H38.1826V19.5477H34.0251C33.6884 19.5477 33.3807 19.7391 33.2324 20.0418L32.4192 21.6996L29.7676 19.7226C29.6152 19.6092 29.4298 19.5477 29.24 19.5477H20.2971V18.1568H22.6652Z" fill="#222222"/>
<path d="M11.685 4.29297L11.7073 4.31028C11.8671 4.43113 12.0545 4.4899 12.2407 4.4899C12.5074 4.4899 12.7708 4.36933 12.9444 4.14054C13.2394 3.75245 13.1635 3.19846 12.7752 2.90375L12.7524 2.88645C12.3643 2.59202 11.8103 2.66782 11.5156 3.05619C11.2209 3.44428 11.2967 3.99827 11.685 4.29297Z" fill="#222222"/>
</svg>
