<svg width="16" height="16" viewBox="0 0 16 16" fill="none" xmlns="http://www.w3.org/2000/svg">
<path d="M15.8022 13.2212C15.7945 13.1218 15.7495 13.0261 15.6757 12.9547L9.29757 6.65343C9.54851 6.0694 9.68096 5.43693 9.68096 4.78329C9.68096 3.50588 9.17665 2.30398 8.26389 1.39996C7.34981 0.497737 6.13412 0 4.84041 0C3.54607 0 2.33248 0.497905 1.41693 1.40069C-0.472065 3.26594 -0.472463 6.2998 1.41665 8.16488C2.33214 9.06958 3.54613 9.56782 4.83979 9.56782C5.50156 9.56782 6.14015 9.43589 6.73271 9.18764L8.82804 11.2593C8.9152 11.3444 9.03016 11.3895 9.1542 11.3855L10.2961 11.3459L10.2588 12.4769C10.2553 12.5962 10.2989 12.7123 10.3864 12.7972C10.4707 12.8821 10.5892 12.9282 10.7094 12.9234L11.8555 12.8847L11.8144 14.0144C11.8108 14.1339 11.8572 14.2502 11.9415 14.3351C12.0287 14.42 12.1302 14.4656 12.2677 14.4615L13.4109 14.4231L13.3726 15.553C13.3659 15.6783 13.4194 15.7988 13.51 15.8843C13.5937 15.9595 13.6981 16 13.8081 16C13.8239 16 13.8401 15.9993 13.8562 15.9979L15.6093 15.8056C15.8462 15.78 16.0187 15.5712 15.9984 15.3366L15.8022 13.2212ZM4.25563 4.20572C3.71717 4.73715 2.84663 4.73715 2.3093 4.20572C1.77118 3.67414 1.77118 2.81424 2.3093 2.28316C2.84663 1.75207 3.71689 1.75157 4.25563 2.28299C4.79302 2.81402 4.79268 3.67447 4.25563 4.20572ZM14.3058 13.3655C14.2418 13.4287 14.156 13.4603 14.0727 13.4603C13.9894 13.4603 13.9036 13.4287 13.8397 13.3655L8.41294 8.00253C8.56403 7.84157 8.70143 7.67214 8.82622 7.49401L14.3057 12.9065C14.4337 13.0329 14.4337 13.2391 14.3058 13.3655Z" fill="#888888"/>
</svg>
